<?xml version="1.0" encoding="UTF-8"?><svg id="Layer_1" xmlns="http://www.w3.org/2000/svg" viewBox="0 0 1366 228"><defs><style>.cls-1{fill:none;stroke:#000;stroke-miterlimit:10;stroke-width:6px;}.cls-2{fill:#f2cf37;}</style></defs><rect class="cls-2" y="-1" width="1366" height="229"/><g><rect class="cls-1" x="95.72" y="75.53" width="127.99" height="85.56" rx="5.36" ry="5.36" transform="translate(-38.2 136.63) rotate(-41.82)"/><g><rect class="cls-1" x="74.11" y="84.36" width="125" height="16.26" rx="3.17" ry="3.17" transform="translate(-26.87 114.65) rotate(-41.82)"/><polygon points="106.52 111.35 96.31 114.79 95.03 137.75 105.24 134.31 106.52 111.35"/><polygon points="124.49 94.32 114.17 99.75 111.95 121.66 123.33 115.29 124.49 94.32"/><polygon points="142.29 80.43 131.97 85.87 129.75 107.78 141.12 101.4 142.29 80.43"/><polygon points="159.2 64.51 148.88 69.95 146.66 91.86 158.03 85.48 159.2 64.51"/><polygon points="177.17 47.48 166.85 52.92 164.63 74.83 176.01 68.45 177.17 47.48"/></g><g><rect class="cls-1" x="51.46" y="64.84" width="125" height="16.26" rx="3.17" ry="3.17" transform="translate(240.14 24.07) rotate(126.18)"/><polygon points="129.78 41.18 132.19 30.68 152.79 26.47 152.5 37.65 129.78 41.18"/><polygon points="114.6 60.73 118.99 49.93 140.58 45.57 135.35 57.51 114.6 60.73"/><polygon points="102.53 79.81 106.92 69.01 128.51 64.65 123.28 76.59 102.53 79.81"/><polygon points="88.34 98.2 92.74 87.4 114.33 83.04 109.1 94.98 88.34 98.2"/><polygon points="73.16 117.76 77.56 106.96 99.15 102.6 93.92 114.54 73.16 117.76"/><circle cx="82" cy="120" r="2"/></g><path d="M165.2,150.95l-26.36-28.36c-1.11-1.19-.52-3.13,1.07-3.5l37.29-8.79c1.58-.37,2.98,1.1,2.52,2.66l-10.93,37.14c-.46,1.58-2.47,2.05-3.58,.84Z"/></g><g><path d="M440.05,67.42h-11.5v-10h34v10h-11.5v60h-11v-60Z"/><path d="M468.84,57.42h11v28.5h11.8v-28.5h11V127.42h-11v-31.5h-11.8v31.5h-11V57.42Z"/><path d="M511.84,57.42h30v10h-19v18.5h15.1v10h-15.1v21.5h19v10h-30V57.42Z"/><path d="M574.64,57.42h14.9l11.4,70h-11l-2-13.9v.2h-12.5l-2,13.7h-10.2l11.4-70Zm12,46.8l-4.9-34.6h-.2l-4.8,34.6h9.9Z"/><path d="M606.34,111.22v-37.6c0-10.8,5.6-17.2,16.2-17.2s16.2,6.4,16.2,17.2v7.4h-10.4v-8.1c0-4.6-2.2-6.5-5.5-6.5s-5.5,1.9-5.5,6.5v39.1c0,4.6,2.2,6.4,5.5,6.4s5.5-1.8,5.5-6.4v-10.7h10.4v9.9c0,10.8-5.6,17.2-16.2,17.2s-16.2-6.4-16.2-17.2Z"/><path d="M654.94,67.42h-11.5v-10h34v10h-11.5v60h-11v-60Z"/><path d="M682.54,110.82v-36.8c0-11.2,5.9-17.6,16.7-17.6s16.7,6.4,16.7,17.6v36.8c0,11.2-5.9,17.6-16.7,17.6s-16.7-6.4-16.7-17.6Zm22.4,.7v-38.2c0-5-2.2-6.9-5.7-6.9s-5.7,1.9-5.7,6.9v38.2c0,5,2.2,6.9,5.7,6.9s5.7-1.9,5.7-6.9Z"/><path d="M724.34,57.42h16.3c11.4,0,16.3,5.3,16.3,16.1v4.3c0,7.2-2.3,11.8-7.2,13.8v.2c5.5,1.7,7.3,6.9,7.3,14.8v12.3c0,3.4,.1,5.9,1.2,8.5h-11.2c-.6-1.8-1-2.9-1-8.6v-12.8c0-6.5-1.9-8.6-6.9-8.6h-3.8v30h-11V57.42Zm15,30c4.1,0,6.6-1.8,6.6-7.4v-5.4c0-5-1.7-7.2-5.6-7.2h-5v20h4Z"/><path d="M763.74,110.82v-4h10.4v4.8c0,5,2.2,6.8,5.7,6.8s5.7-1.8,5.7-7c0-5.8-2.2-9.5-9.4-15.8-9.2-8.1-12.2-13.8-12.2-21.8,0-11,5.7-17.4,16.4-17.4s16,6.4,16,17.6v2.9h-10.4v-3.6c0-5-2-6.9-5.5-6.9s-5.5,1.9-5.5,6.7c0,5.1,2.3,8.8,9.5,15.1,9.2,8.1,12.1,13.7,12.1,22.4,0,11.4-5.8,17.8-16.6,17.8s-16.2-6.4-16.2-17.6Z"/><path d="M820.84,57.42h11v60h18.1v10h-29.1V57.42Z"/><path d="M856.24,57.42h11V127.42h-11V57.42Z"/><path d="M874.54,110.82v-4h10.4v4.8c0,5,2.2,6.8,5.7,6.8s5.7-1.8,5.7-7c0-5.8-2.2-9.5-9.4-15.8-9.2-8.1-12.2-13.8-12.2-21.8,0-11,5.7-17.4,16.4-17.4s16,6.4,16,17.6v2.9h-10.4v-3.6c0-5-2-6.9-5.5-6.9s-5.5,1.9-5.5,6.7c0,5.1,2.3,8.8,9.5,15.1,9.2,8.1,12.1,13.7,12.1,22.4,0,11.4-5.8,17.8-16.6,17.8s-16.2-6.4-16.2-17.6Z"/><path d="M923.24,67.42h-11.5v-10h34v10h-11.5v60h-11v-60Z"/></g><g><path class="cls-1" d="M925.19,177.26l-483.02-1.94c-7.34-.03-13.23-3-13.15-6.64l.45-21.48c.08-3.64,6.08-6.56,13.41-6.53l483.02,1.94c7.34,.03,13.23,3,13.15,6.64l-.45,21.48c-.08,3.64-6.08,6.56-13.41,6.53Z"/><polygon points="544.6 176.28 492.41 175.94 433.96 142.48 484.77 140.65 544.6 176.28"/><polygon points="647.57 176.24 588.15 175.13 518.12 140.87 582.3 140.93 647.57 176.24"/><polygon points="744.74 176.15 687.39 176.09 615.29 140.79 680.54 141.21 744.74 176.15"/><polygon points="837.54 176.76 782 178 708.09 141.4 768.82 140.24 837.54 176.76"/><polygon points="934.69 177.4 876.69 177.02 808.14 142.05 869.66 142.44 934.69 177.4"/><ellipse cx="920.47" cy="154.27" rx="6.46" ry="5.7" transform="translate(-.24 1.46) rotate(-.09)"/></g><g><rect class="cls-1" x="1138.29" y="81.53" width="127.99" height="85.56" rx="5.36" ry="5.36" transform="translate(2015.42 1018.6) rotate(-138.18)"/><g><rect class="cls-1" x="1162.89" y="90.36" width="125" height="16.26" rx="3.17" ry="3.17" transform="translate(2072.96 988.94) rotate(-138.18)"/><polygon points="1255.48 117.35 1265.69 120.79 1266.97 143.75 1256.76 140.31 1255.48 117.35"/><polygon points="1237.51 100.32 1247.83 105.75 1250.05 127.66 1238.68 121.29 1237.51 100.32"/><polygon points="1219.71 86.43 1230.03 91.87 1232.25 113.78 1220.88 107.4 1219.71 86.43"/><polygon points="1202.8 70.51 1213.12 75.95 1215.34 97.86 1203.97 91.48 1202.8 70.51"/><polygon points="1184.83 53.48 1195.15 58.92 1197.37 80.83 1185.99 74.45 1184.83 53.48"/></g><g><rect class="cls-1" x="1185.54" y="70.84" width="125" height="16.26" rx="3.17" ry="3.17" transform="translate(575.05 -975.02) rotate(53.82)"/><polygon points="1232.22 47.18 1229.81 36.68 1209.21 32.47 1209.5 43.65 1232.22 47.18"/><polygon points="1247.41 66.73 1243.01 55.93 1221.42 51.57 1226.65 63.51 1247.41 66.73"/><polygon points="1259.47 85.81 1255.08 75.01 1233.49 70.65 1238.72 82.59 1259.47 85.81"/><polygon points="1273.66 104.2 1269.26 93.4 1247.67 89.04 1252.9 100.98 1273.66 104.2"/><polygon points="1288.84 123.76 1284.44 112.96 1262.85 108.6 1268.09 120.54 1288.84 123.76"/><circle cx="1280" cy="126" r="2"/></g><path d="M1196.8,156.95l26.36-28.36c1.11-1.19,.52-3.13-1.07-3.5l-37.29-8.79c-1.58-.37-2.98,1.1-2.52,2.66l10.93,37.14c.46,1.58,2.47,2.05,3.58,.84Z"/></g></svg>