<?xml version="1.0" encoding="UTF-8"?><svg id="Layer_1" xmlns="http://www.w3.org/2000/svg" viewBox="0 0 1366 206"><defs><style>.cls-1{fill:none;stroke:#000;stroke-miterlimit:10;stroke-width:6px;}.cls-2{fill:#f2cf37;}</style></defs><rect class="cls-2" y="-1" width="1366" height="207"/><g><rect class="cls-1" x="109.7" y="70.76" width="117.17" height="78.33" rx="4.91" ry="4.91" transform="translate(-30.43 140.21) rotate(-41.82)"/><g><rect class="cls-1" x="89.91" y="78.85" width="114.44" height="14.89" rx="2.91" ry="2.91" transform="translate(-20.06 120.08) rotate(-41.82)"/><polygon points="119.58 103.56 110.24 106.7 109.07 127.73 118.41 124.58 119.58 103.56"/><polygon points="136.04 87.97 126.59 92.94 124.56 113 134.97 107.16 136.04 87.97"/><polygon points="152.33 75.25 142.88 80.23 140.85 100.29 151.26 94.45 152.33 75.25"/><polygon points="167.81 60.68 158.37 65.65 156.33 85.71 166.74 79.87 167.81 60.68"/><polygon points="184.27 45.09 174.82 50.06 172.79 70.12 183.2 64.28 184.27 45.09"/></g><g><rect class="cls-1" x="69.18" y="60.98" width="114.44" height="14.89" rx="2.91" ry="2.91" transform="translate(256.25 6.79) rotate(126.18)"/><polygon points="140.87 39.31 143.09 29.7 161.95 25.85 161.68 36.08 140.87 39.31"/><polygon points="126.98 57.22 131 47.33 150.76 43.34 145.97 54.27 126.98 57.22"/><polygon points="115.93 74.68 119.95 64.79 139.71 60.8 134.93 71.74 115.93 74.68"/><polygon points="102.94 91.52 106.97 81.63 126.73 77.64 121.94 88.57 102.94 91.52"/><polygon points="89.05 109.43 93.07 99.54 112.83 95.55 108.04 106.48 89.05 109.43"/><circle cx="97.14" cy="111.48" r="1.83"/></g><path d="M173.3,139.81l-24.14-25.96c-1.01-1.09-.47-2.87,.98-3.21l34.14-8.04c1.45-.34,2.72,1.01,2.3,2.43l-10,34.01c-.42,1.44-2.26,1.87-3.28,.77Z"/></g><g><path d="M474.17,57.73h-9.8v-8.53h28.99v8.53h-9.8v51.15h-9.38V57.73Z"/><path d="M498.72,49.21h9.38v24.3h10.06v-24.3h9.38v59.68h-9.38v-26.85h-10.06v26.85h-9.38V49.21Z"/><path d="M535.38,49.21h25.58v8.53h-16.2v15.77h12.87v8.52h-12.87v18.33h16.2v8.52h-25.58V49.21Z"/><path d="M588.91,49.21h12.7l9.72,59.68h-9.38l-1.71-11.85v.17h-10.66l-1.71,11.68h-8.7l9.72-59.68Zm10.23,39.9l-4.18-29.5h-.17l-4.09,29.5h8.44Z"/><path d="M615.94,95.07V63.02c0-9.21,4.77-14.66,13.81-14.66s13.81,5.46,13.81,14.66v6.31h-8.87v-6.91c0-3.92-1.88-5.54-4.69-5.54s-4.69,1.62-4.69,5.54v33.33c0,3.92,1.88,5.46,4.69,5.46s4.69-1.53,4.69-5.46v-9.12h8.87v8.44c0,9.21-4.77,14.66-13.81,14.66s-13.81-5.46-13.81-14.66Z"/><path d="M657.37,57.73h-9.8v-8.53h28.99v8.53h-9.8v51.15h-9.38V57.73Z"/><path d="M680.9,94.73v-31.37c0-9.55,5.03-15,14.24-15s14.24,5.46,14.24,15v31.37c0,9.55-5.03,15-14.24,15s-14.24-5.46-14.24-15Zm19.1,.6V62.76c0-4.26-1.88-5.88-4.86-5.88s-4.86,1.62-4.86,5.88v32.57c0,4.26,1.88,5.88,4.86,5.88s4.86-1.62,4.86-5.88Z"/><path d="M716.53,49.21h13.9c9.72,0,13.9,4.52,13.9,13.73v3.67c0,6.14-1.96,10.06-6.14,11.76v.17c4.69,1.45,6.22,5.88,6.22,12.62v10.49c0,2.9,.08,5.03,1.02,7.25h-9.55c-.51-1.53-.85-2.47-.85-7.33v-10.91c0-5.54-1.62-7.33-5.88-7.33h-3.24v25.58h-9.38V49.21Zm12.79,25.58c3.5,0,5.63-1.53,5.63-6.31v-4.6c0-4.26-1.45-6.14-4.77-6.14h-4.26v17.05h3.41Z"/><path d="M750.12,94.73v-3.41h8.87v4.09c0,4.26,1.88,5.8,4.86,5.8s4.86-1.53,4.86-5.97c0-4.94-1.88-8.1-8.01-13.47-7.84-6.91-10.4-11.76-10.4-18.58,0-9.38,4.86-14.83,13.98-14.83s13.64,5.46,13.64,15v2.47h-8.87v-3.07c0-4.26-1.71-5.88-4.69-5.88s-4.69,1.62-4.69,5.71c0,4.35,1.96,7.5,8.1,12.87,7.84,6.91,10.32,11.68,10.32,19.1,0,9.72-4.94,15.17-14.15,15.17s-13.81-5.46-13.81-15Z"/><path d="M798.79,49.21h9.38v51.15h15.43v8.52h-24.81V49.21Z"/><path d="M828.97,49.21h9.38v59.68h-9.38V49.21Z"/><path d="M844.57,94.73v-3.41h8.87v4.09c0,4.26,1.88,5.8,4.86,5.8s4.86-1.53,4.86-5.97c0-4.94-1.88-8.1-8.01-13.47-7.84-6.91-10.4-11.76-10.4-18.58,0-9.38,4.86-14.83,13.98-14.83s13.64,5.46,13.64,15v2.47h-8.87v-3.07c0-4.26-1.71-5.88-4.69-5.88s-4.69,1.62-4.69,5.71c0,4.35,1.96,7.5,8.1,12.87,7.84,6.91,10.32,11.68,10.32,19.1,0,9.72-4.94,15.17-14.15,15.17s-13.81-5.46-13.81-15Z"/><path d="M886.08,57.73h-9.8v-8.53h28.98v8.53h-9.8v51.15h-9.38V57.73Z"/></g><g><path class="cls-1" d="M887.75,151.37l-411.77-1.65c-6.26-.03-11.27-2.56-11.21-5.66l.39-18.31c.07-3.1,5.18-5.59,11.43-5.57l411.77,1.65c6.26,.03,11.27,2.56,11.21,5.66l-.39,18.31c-.07,3.1-5.18,5.59-11.43,5.57Z"/><polygon points="563.31 150.53 518.81 150.24 468.98 121.72 512.3 120.16 563.31 150.53"/><polygon points="651.09 150.5 600.43 149.55 540.73 120.35 595.44 120.4 651.09 150.5"/><polygon points="733.92 150.43 685.03 150.37 623.57 120.28 679.19 120.64 733.92 150.43"/><polygon points="813.03 150.94 765.68 152 702.67 120.8 754.45 119.81 813.03 150.94"/><polygon points="895.84 151.49 846.4 151.16 787.96 121.35 840.41 121.68 895.84 151.49"/><ellipse cx="883.73" cy="131.77" rx="5.51" ry="4.86" transform="translate(-.21 1.4) rotate(-.09)"/></g><g><rect class="cls-1" x="1141.18" y="68.26" width="117.17" height="78.33" rx="4.91" ry="4.91" transform="translate(2022.28 987.45) rotate(-138.18)"/><g><rect class="cls-1" x="1163.7" y="76.34" width="114.44" height="14.89" rx="2.91" ry="2.91" transform="translate(2074.96 960.29) rotate(-138.18)"/><polygon points="1248.47 101.05 1257.81 104.2 1258.98 125.22 1249.63 122.07 1248.47 101.05"/><polygon points="1232.01 85.46 1241.46 90.43 1243.49 110.49 1233.08 104.65 1232.01 85.46"/><polygon points="1215.72 72.75 1225.16 77.72 1227.2 97.78 1216.78 91.94 1215.72 72.75"/><polygon points="1200.24 58.17 1209.68 63.15 1211.71 83.21 1201.3 77.37 1200.24 58.17"/><polygon points="1183.78 42.58 1193.23 47.56 1195.26 67.62 1184.85 61.78 1183.78 42.58"/></g><g><rect class="cls-1" x="1184.43" y="58.47" width="114.44" height="14.89" rx="2.91" ry="2.91" transform="translate(561.89 -975.22) rotate(53.82)"/><polygon points="1227.17 36.81 1224.96 27.2 1206.1 23.34 1206.37 33.58 1227.17 36.81"/><polygon points="1241.07 54.71 1237.05 44.82 1217.28 40.83 1222.07 51.76 1241.07 54.71"/><polygon points="1252.12 72.18 1248.1 62.29 1228.33 58.29 1233.12 69.23 1252.12 72.18"/><polygon points="1265.1 89.01 1261.08 79.13 1241.32 75.13 1246.11 86.07 1265.1 89.01"/><polygon points="1279 106.92 1274.98 97.03 1255.22 93.04 1260 103.97 1279 106.92"/><circle cx="1270.91" cy="108.97" r="1.83"/></g><path d="M1194.74,137.3l24.14-25.96c1.01-1.09,.47-2.87-.98-3.21l-34.14-8.04c-1.45-.34-2.72,1.01-2.3,2.43l10,34.01c.42,1.44,2.26,1.87,3.28,.77Z"/></g></svg>